<svg width="12" height="12" viewBox="0 0 12 12" fill="none" xmlns="http://www.w3.org/2000/svg">
<path fill-rule="evenodd" clip-rule="evenodd" d="M7.71022 0.576746C8.47921 -0.192249 9.726 -0.192249 10.495 0.576746L11.4233 1.505C12.1922 2.274 12.1922 3.52079 11.4233 4.28978L4.60184 11.1112C4.51021 11.2028 4.39351 11.2653 4.26644 11.2907L0.785469 11.9869C0.326188 12.0787 -0.0787449 11.6738 0.0131113 11.2145L0.709305 7.73356C0.734719 7.60649 0.797177 7.48979 0.888808 7.39816L7.71022 0.576746ZM9.56674 1.505L10.495 2.43326C10.7513 2.68959 10.7513 3.10519 10.495 3.36152L9.56673 4.28978L7.71022 2.43327L8.63848 1.505C8.89481 1.24867 9.31041 1.24867 9.56674 1.505ZM6.78196 3.36152L1.95759 8.18589L1.49346 10.5065L3.81411 10.0424L6.22629 7.63022L8.63848 5.21804L6.78196 3.36152Z" fill="white"/>
</svg>
